<svg width="40" height="43" viewBox="0 0 40 43" fill="none" xmlns="http://www.w3.org/2000/svg">
<g id="&#227;&#130;&#171;&#227;&#131;&#188;&#227;&#131;&#136;">
<line id="Line 13" x1="0.078125" y1="1.4198" x2="5.70312" y2="1.4198" stroke="black" stroke-width="2"/>
<line id="Line 14" y1="-1" x2="36.7434" y2="-1" transform="matrix(0.133953 0.990988 -0.991776 0.127989 4.29688 1.73279)" stroke="black" stroke-width="2"/>
<line id="Line 15" x1="5.70312" y1="9.66418" x2="38.75" y2="9.66418" stroke="black" stroke-width="2"/>
<line id="Line 16" y1="-1" x2="20.7183" y2="-1" transform="matrix(-0.101812 0.994804 -0.99526 -0.0972468 37.3438 9.97705)" stroke="black" stroke-width="2"/>
<line id="Line 17" x1="36.6406" y1="31.5878" x2="8.51562" y2="31.5878" stroke="black" stroke-width="2"/>
<line id="Line 18" x1="9.21875" y1="37.145" x2="35.2344" y2="37.145" stroke="black" stroke-width="2"/>
<path id="Ellipse 16" d="M18.0615 40.2061C18.0615 41.1498 17.272 41.9542 16.249 41.9542C15.226 41.9542 14.4365 41.1498 14.4365 40.2061C14.4365 39.2624 15.226 38.458 16.249 38.458C17.272 38.458 18.0615 39.2624 18.0615 40.2061Z" stroke="black" stroke-width="2"/>
<path id="Ellipse 17" d="M30.0156 40.2061C30.0156 41.1498 29.2261 41.9542 28.2031 41.9542C27.1801 41.9542 26.3906 41.1498 26.3906 40.2061C26.3906 39.2624 27.1801 38.458 28.2031 38.458C29.2261 38.458 30.0156 39.2624 30.0156 40.2061Z" stroke="black" stroke-width="2"/>
</g>
</svg>
