<svg width="31" height="31" viewBox="0 0 31 31" fill="none" xmlns="http://www.w3.org/2000/svg">
<g id="&#227;&#131;&#143;&#227;&#131;&#188;&#227;&#131;&#136;/&#227;&#130;&#175;&#227;&#131;&#170;&#227;&#131;&#131;&#227;&#130;&#175;ver">
<circle id="Ellipse 29" cx="15.5" cy="15.5" r="15" fill="white" stroke="black"/>
<g id="&#227;&#131;&#143;&#227;&#131;&#188;&#227;&#131;&#136;">
<mask id="path-2-inside-1_88_415" fill="white">
<path fill-rule="evenodd" clip-rule="evenodd" d="M15.5177 10.6996C15.5069 10.6887 15.4961 10.6778 15.4853 10.6669C13.7758 8.95743 11.0042 8.95743 9.29474 10.6669C7.58527 12.3764 7.58527 15.148 9.29474 16.8574C9.30572 16.8684 9.31675 16.8793 9.32782 16.8902L9.3274 16.8906L15.5179 23.0811L21.7085 16.8906L21.7078 16.8899C23.3848 15.178 23.374 12.4307 21.6754 10.7321C19.9768 9.0335 17.2296 9.02268 15.5177 10.6996Z"/>
</mask>
<path fill-rule="evenodd" clip-rule="evenodd" d="M15.5177 10.6996C15.5069 10.6887 15.4961 10.6778 15.4853 10.6669C13.7758 8.95743 11.0042 8.95743 9.29474 10.6669C7.58527 12.3764 7.58527 15.148 9.29474 16.8574C9.30572 16.8684 9.31675 16.8793 9.32782 16.8902L9.3274 16.8906L15.5179 23.0811L21.7085 16.8906L21.7078 16.8899C23.3848 15.178 23.374 12.4307 21.6754 10.7321C19.9768 9.0335 17.2296 9.02268 15.5177 10.6996Z" fill="white"/>
<path d="M15.5177 10.6996L14.8033 11.3994L15.5031 12.1138L16.2174 11.414L15.5177 10.6996ZM9.32782 16.8902L10.0349 17.5973L10.7494 16.8828L10.0275 16.1757L9.32782 16.8902ZM9.3274 16.8906L8.62029 16.1835L7.91318 16.8906L8.62029 17.5977L9.3274 16.8906ZM15.5179 23.0811L14.8108 23.7882L15.5179 24.4953L16.225 23.7882L15.5179 23.0811ZM21.7085 16.8906L22.4156 17.5977L23.1227 16.8906L22.4156 16.1835L21.7085 16.8906ZM21.7078 16.8899L20.9934 16.1901L20.3008 16.8972L21.0007 17.597L21.7078 16.8899ZM14.7782 11.374C14.7866 11.3824 14.795 11.3909 14.8033 11.3994L16.232 9.99987C16.2189 9.98645 16.2057 9.97309 16.1924 9.95979L14.7782 11.374ZM10.0018 11.374C11.3208 10.0551 13.4592 10.0551 14.7782 11.374L16.1924 9.95979C14.0924 7.8598 10.6876 7.8598 8.58763 9.95979L10.0018 11.374ZM10.0018 16.1503C8.6829 14.8314 8.6829 12.6929 10.0018 11.374L8.58763 9.95979C6.48764 12.0598 6.48764 15.4645 8.58763 17.5645L10.0018 16.1503ZM10.0275 16.1757C10.0189 16.1673 10.0104 16.1589 10.0018 16.1503L8.58763 17.5645C8.60107 17.578 8.61457 17.5913 8.62812 17.6046L10.0275 16.1757ZM8.62072 16.1831L8.62029 16.1835L10.0345 17.5977L10.0349 17.5973L8.62072 16.1831ZM8.62029 17.5977L14.8108 23.7882L16.225 22.374L10.0345 16.1835L8.62029 17.5977ZM16.225 23.7882L22.4156 17.5977L21.0014 16.1835L14.8108 22.374L16.225 23.7882ZM22.4156 16.1835L22.4149 16.1828L21.0007 17.597L21.0014 17.5977L22.4156 16.1835ZM22.4221 17.5897C24.4824 15.4865 24.4692 12.1117 22.3825 10.025L20.9683 11.4392C22.2788 12.7497 22.2872 14.8694 20.9934 16.1901L22.4221 17.5897ZM22.3825 10.025C20.2959 7.93831 16.9211 7.92506 14.8179 9.98527L16.2174 11.414C17.5381 10.1203 19.6578 10.1287 20.9683 11.4392L22.3825 10.025Z" fill="black" mask="url(#path-2-inside-1_88_415)"/>
</g>
</g>
</svg>
