<svg width="20" height="15" viewBox="0 0 20 15" fill="none" xmlns="http://www.w3.org/2000/svg">
<path id="Vector" d="M12.5 12.5C9.73333 12.5 7.5 10.2583 7.5 7.5C7.5 4.73333 9.73333 2.5 12.5 2.5C13.8261 2.5 15.0979 3.02678 16.0355 3.96447C16.9732 4.90215 17.5 6.17392 17.5 7.5C17.5 8.82608 16.9732 10.0979 16.0355 11.0355C15.0979 11.9732 13.8261 12.5 12.5 12.5ZM3.33333 8.33333C3.11232 8.33333 2.90036 8.24554 2.74408 8.08926C2.5878 7.93297 2.5 7.72101 2.5 7.5C2.5 7.27899 2.5878 7.06702 2.74408 6.91074C2.90036 6.75446 3.11232 6.66667 3.33333 6.66667C3.55435 6.66667 3.76631 6.75446 3.92259 6.91074C4.07887 7.06702 4.16667 7.27899 4.16667 7.5C4.16667 7.72101 4.07887 7.93297 3.92259 8.08926C3.76631 8.24554 3.55435 8.33333 3.33333 8.33333ZM18.3333 0H6.35833C5.80833 0 5.31667 0.266667 5 0.675L0 7.5L5 14.3167C5.31667 14.7333 5.80833 15 6.35833 15H18.3333C18.7754 15 19.1993 14.8244 19.5118 14.5118C19.8244 14.1993 20 13.7754 20 13.3333V1.66667C20 1.22464 19.8244 0.800716 19.5118 0.488155C19.1993 0.175595 18.7754 0 18.3333 0ZM10.8333 6.66667C11.0543 6.66667 11.2663 6.57887 11.4226 6.42259C11.5789 6.26631 11.6667 6.05435 11.6667 5.83333C11.6667 5.61232 11.5789 5.40036 11.4226 5.24408C11.2663 5.0878 11.0543 5 10.8333 5C10.6123 5 10.4004 5.0878 10.2441 5.24408C10.0878 5.40036 10 5.61232 10 5.83333C10 6.05435 10.0878 6.26631 10.2441 6.42259C10.4004 6.57887 10.6123 6.66667 10.8333 6.66667ZM12.5 10.8333C14.05 10.8333 15.2917 9.76667 15.6667 8.33333H9.33333C9.70833 9.76667 10.95 10.8333 12.5 10.8333ZM14.1667 6.66667C14.3877 6.66667 14.5996 6.57887 14.7559 6.42259C14.9122 6.26631 15 6.05435 15 5.83333C15 5.61232 14.9122 5.40036 14.7559 5.24408C14.5996 5.0878 14.3877 5 14.1667 5C13.9457 5 13.7337 5.0878 13.5774 5.24408C13.4211 5.40036 13.3333 5.61232 13.3333 5.83333C13.3333 6.05435 13.4211 6.26631 13.5774 6.42259C13.7337 6.57887 13.9457 6.66667 14.1667 6.66667Z" fill="black"/>
</svg>
